<mxfile host="app.diagrams.net" modified="2023-10-03T15:06:27.507Z" agent="Mozilla/5.0 (Windows NT 10.0; Win64; x64) AppleWebKit/537.36 (KHTML, like Gecko) Chrome/117.0.0.0 Safari/537.36" etag="TuzlfKU_7jk18G6zVpVB" version="22.0.2" type="device">
  <diagram name="Página-1" id="yrihIXnJpnou8gyCHy2Z">
    <mxGraphModel dx="1434" dy="768" grid="1" gridSize="10" guides="1" tooltips="1" connect="1" arrows="1" fold="1" page="1" pageScale="1" pageWidth="827" pageHeight="1169" math="0" shadow="0">
      <root>
        <mxCell id="0" />
        <mxCell id="1" parent="0" />
        <mxCell id="BFPGPvD-p3LUpmtbJwbF-1" value="&lt;font style=&quot;font-size: 18px;&quot;&gt;Algoritmo 10&lt;/font&gt;" style="text;html=1;align=center;verticalAlign=middle;resizable=0;points=[];autosize=1;strokeColor=none;fillColor=none;" parent="1" vertex="1">
          <mxGeometry x="10" y="13" width="120" height="40" as="geometry" />
        </mxCell>
        <mxCell id="BFPGPvD-p3LUpmtbJwbF-12" value="" style="edgeStyle=orthogonalEdgeStyle;rounded=0;orthogonalLoop=1;jettySize=auto;html=1;endArrow=none;endFill=0;" parent="1" source="BFPGPvD-p3LUpmtbJwbF-2" target="BFPGPvD-p3LUpmtbJwbF-4" edge="1">
          <mxGeometry relative="1" as="geometry" />
        </mxCell>
        <mxCell id="BFPGPvD-p3LUpmtbJwbF-2" value="Inicio" style="ellipse;whiteSpace=wrap;html=1;" parent="1" vertex="1">
          <mxGeometry x="354" y="160" width="120" height="80" as="geometry" />
        </mxCell>
        <mxCell id="BFPGPvD-p3LUpmtbJwbF-3" value=".Diseñar un diagrama de flujo que pida al usuario un número entero positivo y&lt;br/&gt;muestre por pantalla la cuenta atrás desde ese número hasta cero." style="text;html=1;align=center;verticalAlign=middle;resizable=0;points=[];autosize=1;strokeColor=none;fillColor=none;" parent="1" vertex="1">
          <mxGeometry x="150" y="20" width="440" height="40" as="geometry" />
        </mxCell>
        <mxCell id="BFPGPvD-p3LUpmtbJwbF-13" value="" style="edgeStyle=orthogonalEdgeStyle;rounded=0;orthogonalLoop=1;jettySize=auto;html=1;" parent="1" source="BFPGPvD-p3LUpmtbJwbF-4" target="BFPGPvD-p3LUpmtbJwbF-5" edge="1">
          <mxGeometry relative="1" as="geometry" />
        </mxCell>
        <mxCell id="BFPGPvD-p3LUpmtbJwbF-4" value="numIngresado" style="shape=parallelogram;perimeter=parallelogramPerimeter;whiteSpace=wrap;html=1;fixedSize=1;" parent="1" vertex="1">
          <mxGeometry x="354" y="280" width="120" height="60" as="geometry" />
        </mxCell>
        <mxCell id="BFPGPvD-p3LUpmtbJwbF-7" style="edgeStyle=orthogonalEdgeStyle;rounded=0;orthogonalLoop=1;jettySize=auto;html=1;" parent="1" source="BFPGPvD-p3LUpmtbJwbF-5" target="BFPGPvD-p3LUpmtbJwbF-4" edge="1">
          <mxGeometry relative="1" as="geometry">
            <mxPoint x="560" y="310" as="targetPoint" />
            <Array as="points">
              <mxPoint x="561" y="465" />
              <mxPoint x="561" y="310" />
            </Array>
          </mxGeometry>
        </mxCell>
        <mxCell id="BFPGPvD-p3LUpmtbJwbF-15" style="edgeStyle=orthogonalEdgeStyle;rounded=0;orthogonalLoop=1;jettySize=auto;html=1;" parent="1" source="BFPGPvD-p3LUpmtbJwbF-5" target="BFPGPvD-p3LUpmtbJwbF-14" edge="1">
          <mxGeometry relative="1" as="geometry" />
        </mxCell>
        <mxCell id="BFPGPvD-p3LUpmtbJwbF-5" value="numIngresado &amp;lt; 0" style="rhombus;whiteSpace=wrap;html=1;" parent="1" vertex="1">
          <mxGeometry x="341" y="420" width="146" height="90" as="geometry" />
        </mxCell>
        <mxCell id="BFPGPvD-p3LUpmtbJwbF-8" value="si" style="text;html=1;align=center;verticalAlign=middle;resizable=0;points=[];autosize=1;strokeColor=none;fillColor=none;" parent="1" vertex="1">
          <mxGeometry x="475" y="438" width="30" height="30" as="geometry" />
        </mxCell>
        <mxCell id="BFPGPvD-p3LUpmtbJwbF-18" value="" style="edgeStyle=orthogonalEdgeStyle;rounded=0;orthogonalLoop=1;jettySize=auto;html=1;" parent="1" source="BFPGPvD-p3LUpmtbJwbF-9" target="BFPGPvD-p3LUpmtbJwbF-17" edge="1">
          <mxGeometry relative="1" as="geometry" />
        </mxCell>
        <mxCell id="BFPGPvD-p3LUpmtbJwbF-9" value="numIngresado - 1" style="rounded=0;whiteSpace=wrap;html=1;" parent="1" vertex="1">
          <mxGeometry x="354" y="720" width="120" height="60" as="geometry" />
        </mxCell>
        <mxCell id="BFPGPvD-p3LUpmtbJwbF-10" value="no" style="text;html=1;align=center;verticalAlign=middle;resizable=0;points=[];autosize=1;strokeColor=none;fillColor=none;" parent="1" vertex="1">
          <mxGeometry x="434" y="510" width="40" height="30" as="geometry" />
        </mxCell>
        <mxCell id="BFPGPvD-p3LUpmtbJwbF-16" style="edgeStyle=orthogonalEdgeStyle;rounded=0;orthogonalLoop=1;jettySize=auto;html=1;" parent="1" source="BFPGPvD-p3LUpmtbJwbF-14" target="BFPGPvD-p3LUpmtbJwbF-9" edge="1">
          <mxGeometry relative="1" as="geometry" />
        </mxCell>
        <mxCell id="BFPGPvD-p3LUpmtbJwbF-14" value="numIngresado" style="shape=parallelogram;perimeter=parallelogramPerimeter;whiteSpace=wrap;html=1;fixedSize=1;" parent="1" vertex="1">
          <mxGeometry x="354" y="600" width="120" height="60" as="geometry" />
        </mxCell>
        <mxCell id="BFPGPvD-p3LUpmtbJwbF-19" style="edgeStyle=orthogonalEdgeStyle;rounded=0;orthogonalLoop=1;jettySize=auto;html=1;" parent="1" source="BFPGPvD-p3LUpmtbJwbF-17" target="BFPGPvD-p3LUpmtbJwbF-20" edge="1">
          <mxGeometry relative="1" as="geometry">
            <mxPoint x="414" y="1030" as="targetPoint" />
          </mxGeometry>
        </mxCell>
        <mxCell id="BFPGPvD-p3LUpmtbJwbF-21" style="edgeStyle=orthogonalEdgeStyle;rounded=0;orthogonalLoop=1;jettySize=auto;html=1;" parent="1" target="BFPGPvD-p3LUpmtbJwbF-5" edge="1">
          <mxGeometry relative="1" as="geometry">
            <mxPoint x="240" y="470" as="targetPoint" />
            <mxPoint x="372" y="900" as="sourcePoint" />
            <Array as="points">
              <mxPoint x="372" y="901" />
              <mxPoint x="241" y="901" />
              <mxPoint x="241" y="465" />
            </Array>
          </mxGeometry>
        </mxCell>
        <mxCell id="BFPGPvD-p3LUpmtbJwbF-17" value="numIngresado == 0" style="rhombus;whiteSpace=wrap;html=1;rounded=0;" parent="1" vertex="1">
          <mxGeometry x="332" y="870" width="164" height="60" as="geometry" />
        </mxCell>
        <mxCell id="BFPGPvD-p3LUpmtbJwbF-20" value="Fin" style="ellipse;whiteSpace=wrap;html=1;" parent="1" vertex="1">
          <mxGeometry x="354" y="990" width="120" height="80" as="geometry" />
        </mxCell>
        <mxCell id="BFPGPvD-p3LUpmtbJwbF-22" value="no" style="text;html=1;align=center;verticalAlign=middle;resizable=0;points=[];autosize=1;strokeColor=none;fillColor=none;" parent="1" vertex="1">
          <mxGeometry x="300" y="868" width="40" height="30" as="geometry" />
        </mxCell>
        <mxCell id="BFPGPvD-p3LUpmtbJwbF-23" value="si" style="text;html=1;align=center;verticalAlign=middle;resizable=0;points=[];autosize=1;strokeColor=none;fillColor=none;" parent="1" vertex="1">
          <mxGeometry x="435" y="918" width="30" height="30" as="geometry" />
        </mxCell>
        <mxCell id="BFPGPvD-p3LUpmtbJwbF-25" value="&lt;font style=&quot;font-size: 18px;&quot;&gt;Algoritmo 11&lt;/font&gt;" style="text;html=1;align=center;verticalAlign=middle;resizable=0;points=[];autosize=1;strokeColor=none;fillColor=none;" parent="1" vertex="1">
          <mxGeometry x="10" y="1160" width="120" height="40" as="geometry" />
        </mxCell>
        <mxCell id="BFPGPvD-p3LUpmtbJwbF-26" value="Diseñar un diagrama de flujo que calcule el cuadrado de los N primeros números." style="text;html=1;align=center;verticalAlign=middle;resizable=0;points=[];autosize=1;strokeColor=none;fillColor=none;" parent="1" vertex="1">
          <mxGeometry x="160" y="1180" width="460" height="30" as="geometry" />
        </mxCell>
        <mxCell id="BFPGPvD-p3LUpmtbJwbF-29" style="edgeStyle=orthogonalEdgeStyle;rounded=0;orthogonalLoop=1;jettySize=auto;html=1;" parent="1" source="BFPGPvD-p3LUpmtbJwbF-27" target="BFPGPvD-p3LUpmtbJwbF-28" edge="1">
          <mxGeometry relative="1" as="geometry" />
        </mxCell>
        <mxCell id="BFPGPvD-p3LUpmtbJwbF-27" value="Inicio" style="ellipse;whiteSpace=wrap;html=1;" parent="1" vertex="1">
          <mxGeometry x="354" y="1250" width="120" height="80" as="geometry" />
        </mxCell>
        <mxCell id="BFPGPvD-p3LUpmtbJwbF-37" style="edgeStyle=orthogonalEdgeStyle;rounded=0;orthogonalLoop=1;jettySize=auto;html=1;" parent="1" source="BFPGPvD-p3LUpmtbJwbF-28" target="BFPGPvD-p3LUpmtbJwbF-30" edge="1">
          <mxGeometry relative="1" as="geometry" />
        </mxCell>
        <mxCell id="BFPGPvD-p3LUpmtbJwbF-28" value="n" style="shape=parallelogram;perimeter=parallelogramPerimeter;whiteSpace=wrap;html=1;fixedSize=1;" parent="1" vertex="1">
          <mxGeometry x="354" y="1410" width="120" height="60" as="geometry" />
        </mxCell>
        <mxCell id="BFPGPvD-p3LUpmtbJwbF-31" style="edgeStyle=orthogonalEdgeStyle;rounded=0;orthogonalLoop=1;jettySize=auto;html=1;" parent="1" source="BFPGPvD-p3LUpmtbJwbF-30" target="BFPGPvD-p3LUpmtbJwbF-28" edge="1">
          <mxGeometry relative="1" as="geometry">
            <mxPoint x="560" y="1430" as="targetPoint" />
            <Array as="points">
              <mxPoint x="520" y="1590" />
              <mxPoint x="520" y="1440" />
            </Array>
          </mxGeometry>
        </mxCell>
        <mxCell id="BFPGPvD-p3LUpmtbJwbF-40" style="edgeStyle=orthogonalEdgeStyle;rounded=0;orthogonalLoop=1;jettySize=auto;html=1;" parent="1" source="BFPGPvD-p3LUpmtbJwbF-30" target="BFPGPvD-p3LUpmtbJwbF-39" edge="1">
          <mxGeometry relative="1" as="geometry" />
        </mxCell>
        <mxCell id="BFPGPvD-p3LUpmtbJwbF-30" value="n &amp;lt; 0" style="whiteSpace=wrap;html=1;strokeWidth=2;shape=mxgraph.flowchart.decision;" parent="1" vertex="1">
          <mxGeometry x="374" y="1550" width="80" height="80" as="geometry" />
        </mxCell>
        <mxCell id="BFPGPvD-p3LUpmtbJwbF-32" value="T" style="text;html=1;align=center;verticalAlign=middle;resizable=0;points=[];autosize=1;strokeColor=none;fillColor=none;" parent="1" vertex="1">
          <mxGeometry x="445" y="1558" width="30" height="30" as="geometry" />
        </mxCell>
        <mxCell id="Vq1-9iuDw2BEiqAgDplf-10" style="edgeStyle=orthogonalEdgeStyle;rounded=0;orthogonalLoop=1;jettySize=auto;html=1;" parent="1" source="BFPGPvD-p3LUpmtbJwbF-33" target="BFPGPvD-p3LUpmtbJwbF-48" edge="1">
          <mxGeometry relative="1" as="geometry">
            <mxPoint x="200" y="1850" as="targetPoint" />
            <Array as="points">
              <mxPoint x="200" y="2200" />
              <mxPoint x="200" y="1860" />
            </Array>
          </mxGeometry>
        </mxCell>
        <mxCell id="BFPGPvD-p3LUpmtbJwbF-33" value="result" style="shape=parallelogram;perimeter=parallelogramPerimeter;whiteSpace=wrap;html=1;fixedSize=1;" parent="1" vertex="1">
          <mxGeometry x="354" y="2170" width="120" height="60" as="geometry" />
        </mxCell>
        <mxCell id="Vq1-9iuDw2BEiqAgDplf-9" style="edgeStyle=orthogonalEdgeStyle;rounded=0;orthogonalLoop=1;jettySize=auto;html=1;" parent="1" source="BFPGPvD-p3LUpmtbJwbF-34" target="BFPGPvD-p3LUpmtbJwbF-33" edge="1">
          <mxGeometry relative="1" as="geometry" />
        </mxCell>
        <mxCell id="BFPGPvD-p3LUpmtbJwbF-34" value="result = contador * contador&lt;br&gt;contador + 1" style="rounded=1;whiteSpace=wrap;html=1;absoluteArcSize=1;arcSize=14;strokeWidth=2;" parent="1" vertex="1">
          <mxGeometry x="324.5" y="2000.5" width="179" height="79" as="geometry" />
        </mxCell>
        <mxCell id="BFPGPvD-p3LUpmtbJwbF-38" value="F" style="text;html=1;align=center;verticalAlign=middle;resizable=0;points=[];autosize=1;strokeColor=none;fillColor=none;" parent="1" vertex="1">
          <mxGeometry x="355" y="1608" width="30" height="30" as="geometry" />
        </mxCell>
        <mxCell id="Vq1-9iuDw2BEiqAgDplf-13" style="edgeStyle=orthogonalEdgeStyle;rounded=0;orthogonalLoop=1;jettySize=auto;html=1;" parent="1" source="BFPGPvD-p3LUpmtbJwbF-39" target="BFPGPvD-p3LUpmtbJwbF-48" edge="1">
          <mxGeometry relative="1" as="geometry" />
        </mxCell>
        <mxCell id="BFPGPvD-p3LUpmtbJwbF-39" value="" style="verticalLabelPosition=bottom;verticalAlign=top;html=1;shape=hexagon;perimeter=hexagonPerimeter2;arcSize=6;size=0.27;" parent="1" vertex="1">
          <mxGeometry x="364" y="1703.5" width="100" height="60" as="geometry" />
        </mxCell>
        <mxCell id="BFPGPvD-p3LUpmtbJwbF-43" value="F" style="text;html=1;align=center;verticalAlign=middle;resizable=0;points=[];autosize=1;strokeColor=none;fillColor=none;" parent="1" vertex="1">
          <mxGeometry x="466" y="1830" width="30" height="30" as="geometry" />
        </mxCell>
        <mxCell id="BFPGPvD-p3LUpmtbJwbF-46" value="contador = 0&lt;br&gt;result" style="text;html=1;align=center;verticalAlign=middle;resizable=0;points=[];autosize=1;strokeColor=none;fillColor=none;" parent="1" vertex="1">
          <mxGeometry x="369" y="1714" width="90" height="40" as="geometry" />
        </mxCell>
        <mxCell id="Vq1-9iuDw2BEiqAgDplf-8" style="edgeStyle=orthogonalEdgeStyle;rounded=0;orthogonalLoop=1;jettySize=auto;html=1;" parent="1" source="BFPGPvD-p3LUpmtbJwbF-48" target="BFPGPvD-p3LUpmtbJwbF-34" edge="1">
          <mxGeometry relative="1" as="geometry" />
        </mxCell>
        <mxCell id="Vq1-9iuDw2BEiqAgDplf-11" style="edgeStyle=orthogonalEdgeStyle;rounded=0;orthogonalLoop=1;jettySize=auto;html=1;" parent="1" source="BFPGPvD-p3LUpmtbJwbF-48" target="BFPGPvD-p3LUpmtbJwbF-56" edge="1">
          <mxGeometry relative="1" as="geometry">
            <mxPoint x="620" y="2350" as="targetPoint" />
            <Array as="points">
              <mxPoint x="620" y="1860" />
              <mxPoint x="620" y="2310" />
            </Array>
          </mxGeometry>
        </mxCell>
        <mxCell id="BFPGPvD-p3LUpmtbJwbF-48" value="contador &amp;lt;= n" style="strokeWidth=2;html=1;shape=mxgraph.flowchart.decision;whiteSpace=wrap;" parent="1" vertex="1">
          <mxGeometry x="364" y="1810" width="100" height="100" as="geometry" />
        </mxCell>
        <mxCell id="BFPGPvD-p3LUpmtbJwbF-53" value="T" style="text;html=1;align=center;verticalAlign=middle;resizable=0;points=[];autosize=1;strokeColor=none;fillColor=none;" parent="1" vertex="1">
          <mxGeometry x="414" y="1910" width="30" height="30" as="geometry" />
        </mxCell>
        <mxCell id="BFPGPvD-p3LUpmtbJwbF-56" value="fin" style="strokeWidth=2;html=1;shape=mxgraph.flowchart.start_2;whiteSpace=wrap;direction=south;" parent="1" vertex="1">
          <mxGeometry x="374" y="2260" width="100" height="100" as="geometry" />
        </mxCell>
        <mxCell id="QMiUoUGDTxvNpUVMuWpY-1" value="&lt;font style=&quot;font-size: 18px;&quot;&gt;Algoritmo 11&lt;/font&gt;" style="text;html=1;align=center;verticalAlign=middle;resizable=0;points=[];autosize=1;strokeColor=none;fillColor=none;" parent="1" vertex="1">
          <mxGeometry x="10" y="1160" width="120" height="40" as="geometry" />
        </mxCell>
        <mxCell id="QMiUoUGDTxvNpUVMuWpY-2" value="&lt;font style=&quot;font-size: 18px;&quot;&gt;Algoritmo 14&lt;/font&gt;" style="text;html=1;align=center;verticalAlign=middle;resizable=0;points=[];autosize=1;strokeColor=none;fillColor=none;" parent="1" vertex="1">
          <mxGeometry y="2640" width="120" height="40" as="geometry" />
        </mxCell>
        <mxCell id="QMiUoUGDTxvNpUVMuWpY-3" value="Diseñar un diagrama de flujo que calcule la nota final de un alumno, sabiendo&lt;br/&gt;que la nota teórica computa el 40% de la nota final y la nota práctica el 60%. " style="text;html=1;align=center;verticalAlign=middle;resizable=0;points=[];autosize=1;strokeColor=none;fillColor=none;" parent="1" vertex="1">
          <mxGeometry x="160" y="2660" width="440" height="40" as="geometry" />
        </mxCell>
        <mxCell id="QMiUoUGDTxvNpUVMuWpY-6" style="edgeStyle=orthogonalEdgeStyle;rounded=0;orthogonalLoop=1;jettySize=auto;html=1;" parent="1" source="QMiUoUGDTxvNpUVMuWpY-4" target="QMiUoUGDTxvNpUVMuWpY-5" edge="1">
          <mxGeometry relative="1" as="geometry" />
        </mxCell>
        <mxCell id="QMiUoUGDTxvNpUVMuWpY-4" value="Inicio" style="whiteSpace=wrap;html=1;aspect=fixed;strokeWidth=2;shape=mxgraph.flowchart.start_2;" parent="1" vertex="1">
          <mxGeometry x="374" y="2770" width="80" height="80" as="geometry" />
        </mxCell>
        <mxCell id="QMiUoUGDTxvNpUVMuWpY-14" style="edgeStyle=orthogonalEdgeStyle;rounded=0;orthogonalLoop=1;jettySize=auto;html=1;" parent="1" source="QMiUoUGDTxvNpUVMuWpY-5" target="QMiUoUGDTxvNpUVMuWpY-7" edge="1">
          <mxGeometry relative="1" as="geometry" />
        </mxCell>
        <mxCell id="QMiUoUGDTxvNpUVMuWpY-5" value="notaTeoAlu&lt;br&gt;notaPraAlu" style="shape=parallelogram;perimeter=parallelogramPerimeter;whiteSpace=wrap;html=1;fixedSize=1;" parent="1" vertex="1">
          <mxGeometry x="354" y="2911" width="120" height="60" as="geometry" />
        </mxCell>
        <mxCell id="QMiUoUGDTxvNpUVMuWpY-15" style="edgeStyle=orthogonalEdgeStyle;rounded=0;orthogonalLoop=1;jettySize=auto;html=1;" parent="1" source="QMiUoUGDTxvNpUVMuWpY-7" target="QMiUoUGDTxvNpUVMuWpY-9" edge="1">
          <mxGeometry relative="1" as="geometry" />
        </mxCell>
        <mxCell id="QMiUoUGDTxvNpUVMuWpY-7" value="" style="verticalLabelPosition=bottom;verticalAlign=top;html=1;shape=hexagon;perimeter=hexagonPerimeter2;arcSize=6;size=0.27;" parent="1" vertex="1">
          <mxGeometry x="364" y="3040" width="100" height="60" as="geometry" />
        </mxCell>
        <mxCell id="QMiUoUGDTxvNpUVMuWpY-8" value="notaMedia = 0.0" style="text;html=1;align=center;verticalAlign=middle;resizable=0;points=[];autosize=1;strokeColor=none;fillColor=none;" parent="1" vertex="1">
          <mxGeometry x="359" y="3055" width="110" height="30" as="geometry" />
        </mxCell>
        <mxCell id="QMiUoUGDTxvNpUVMuWpY-21" style="edgeStyle=orthogonalEdgeStyle;rounded=0;orthogonalLoop=1;jettySize=auto;html=1;" parent="1" source="QMiUoUGDTxvNpUVMuWpY-9" target="QMiUoUGDTxvNpUVMuWpY-16" edge="1">
          <mxGeometry relative="1" as="geometry" />
        </mxCell>
        <mxCell id="QMiUoUGDTxvNpUVMuWpY-9" value="media = &lt;br&gt;(notaTeoAlu * 0.4) + (notaPraAlu * 0.6)" style="rounded=1;whiteSpace=wrap;html=1;absoluteArcSize=1;arcSize=14;strokeWidth=2;" parent="1" vertex="1">
          <mxGeometry x="301" y="3200" width="226" height="100" as="geometry" />
        </mxCell>
        <mxCell id="QMiUoUGDTxvNpUVMuWpY-19" style="edgeStyle=orthogonalEdgeStyle;rounded=0;orthogonalLoop=1;jettySize=auto;html=1;" parent="1" source="QMiUoUGDTxvNpUVMuWpY-16" target="QMiUoUGDTxvNpUVMuWpY-17" edge="1">
          <mxGeometry relative="1" as="geometry" />
        </mxCell>
        <mxCell id="QMiUoUGDTxvNpUVMuWpY-22" style="edgeStyle=orthogonalEdgeStyle;rounded=0;orthogonalLoop=1;jettySize=auto;html=1;" parent="1" source="QMiUoUGDTxvNpUVMuWpY-16" target="QMiUoUGDTxvNpUVMuWpY-18" edge="1">
          <mxGeometry relative="1" as="geometry" />
        </mxCell>
        <mxCell id="QMiUoUGDTxvNpUVMuWpY-16" value="media &amp;gt;= 5" style="strokeWidth=2;html=1;shape=mxgraph.flowchart.decision;whiteSpace=wrap;" parent="1" vertex="1">
          <mxGeometry x="364" y="3370" width="100" height="100" as="geometry" />
        </mxCell>
        <mxCell id="QMiUoUGDTxvNpUVMuWpY-25" style="edgeStyle=orthogonalEdgeStyle;rounded=0;orthogonalLoop=1;jettySize=auto;html=1;" parent="1" source="QMiUoUGDTxvNpUVMuWpY-17" target="QMiUoUGDTxvNpUVMuWpY-24" edge="1">
          <mxGeometry relative="1" as="geometry" />
        </mxCell>
        <mxCell id="QMiUoUGDTxvNpUVMuWpY-17" value="¡Has aprobado!&lt;br&gt;:D" style="shape=parallelogram;html=1;strokeWidth=2;perimeter=parallelogramPerimeter;whiteSpace=wrap;rounded=1;arcSize=12;size=0.23;" parent="1" vertex="1">
          <mxGeometry x="200" y="3570" width="150" height="60" as="geometry" />
        </mxCell>
        <mxCell id="QMiUoUGDTxvNpUVMuWpY-26" style="edgeStyle=orthogonalEdgeStyle;rounded=0;orthogonalLoop=1;jettySize=auto;html=1;" parent="1" source="QMiUoUGDTxvNpUVMuWpY-18" target="QMiUoUGDTxvNpUVMuWpY-24" edge="1">
          <mxGeometry relative="1" as="geometry" />
        </mxCell>
        <mxCell id="QMiUoUGDTxvNpUVMuWpY-18" value="¡Suspenso!&amp;nbsp;&lt;br&gt;:/" style="shape=parallelogram;html=1;strokeWidth=2;perimeter=parallelogramPerimeter;whiteSpace=wrap;rounded=1;arcSize=12;size=0.23;" parent="1" vertex="1">
          <mxGeometry x="478" y="3570" width="150" height="60" as="geometry" />
        </mxCell>
        <mxCell id="QMiUoUGDTxvNpUVMuWpY-20" value="T" style="text;html=1;align=center;verticalAlign=middle;resizable=0;points=[];autosize=1;strokeColor=none;fillColor=none;" parent="1" vertex="1">
          <mxGeometry x="332" y="3388" width="30" height="30" as="geometry" />
        </mxCell>
        <mxCell id="QMiUoUGDTxvNpUVMuWpY-23" value="F" style="text;html=1;align=center;verticalAlign=middle;resizable=0;points=[];autosize=1;strokeColor=none;fillColor=none;" parent="1" vertex="1">
          <mxGeometry x="465" y="3388" width="30" height="30" as="geometry" />
        </mxCell>
        <mxCell id="QMiUoUGDTxvNpUVMuWpY-24" value="Fin" style="strokeWidth=2;html=1;shape=mxgraph.flowchart.start_2;whiteSpace=wrap;" parent="1" vertex="1">
          <mxGeometry x="364" y="3780" width="100" height="100" as="geometry" />
        </mxCell>
        <mxCell id="Vq1-9iuDw2BEiqAgDplf-1" value="&lt;font style=&quot;font-size: 18px&quot;&gt;Algoritmo 15&lt;/font&gt;" style="text;html=1;align=center;verticalAlign=middle;resizable=0;points=[];autosize=1;strokeColor=none;fillColor=none;" parent="1" vertex="1">
          <mxGeometry y="3970" width="120" height="20" as="geometry" />
        </mxCell>
        <mxCell id="Vq1-9iuDw2BEiqAgDplf-2" value="&lt;div&gt;Diseñar un diagrama de flujo que pregunte al usuario una cantidad a invertir&lt;/div&gt;&lt;div&gt;en un fondo de inversión y el interés anual; y muestre por pantalla la&lt;/div&gt;&lt;div&gt;rentabilidad obtenida durante el primer año.&lt;/div&gt;" style="text;html=1;align=center;verticalAlign=middle;resizable=0;points=[];autosize=1;" parent="1" vertex="1">
          <mxGeometry x="170" y="3970" width="420" height="50" as="geometry" />
        </mxCell>
        <mxCell id="Vq1-9iuDw2BEiqAgDplf-5" style="edgeStyle=orthogonalEdgeStyle;rounded=0;orthogonalLoop=1;jettySize=auto;html=1;" parent="1" source="Vq1-9iuDw2BEiqAgDplf-3" target="Vq1-9iuDw2BEiqAgDplf-4" edge="1">
          <mxGeometry relative="1" as="geometry" />
        </mxCell>
        <mxCell id="Vq1-9iuDw2BEiqAgDplf-3" value="Inicio" style="strokeWidth=2;html=1;shape=mxgraph.flowchart.start_2;whiteSpace=wrap;" parent="1" vertex="1">
          <mxGeometry x="364" y="4092" width="100" height="100" as="geometry" />
        </mxCell>
        <mxCell id="Vq1-9iuDw2BEiqAgDplf-16" style="edgeStyle=orthogonalEdgeStyle;rounded=0;orthogonalLoop=1;jettySize=auto;html=1;" parent="1" source="Vq1-9iuDw2BEiqAgDplf-4" target="Vq1-9iuDw2BEiqAgDplf-6" edge="1">
          <mxGeometry relative="1" as="geometry" />
        </mxCell>
        <mxCell id="Vq1-9iuDw2BEiqAgDplf-4" value="cantBase&lt;br&gt;inteAnual" style="shape=parallelogram;html=1;strokeWidth=2;perimeter=parallelogramPerimeter;whiteSpace=wrap;rounded=1;arcSize=12;size=0.23;" parent="1" vertex="1">
          <mxGeometry x="364" y="4300" width="100" height="60" as="geometry" />
        </mxCell>
        <mxCell id="Vq1-9iuDw2BEiqAgDplf-17" style="edgeStyle=orthogonalEdgeStyle;rounded=0;orthogonalLoop=1;jettySize=auto;html=1;" parent="1" source="Vq1-9iuDw2BEiqAgDplf-6" target="Vq1-9iuDw2BEiqAgDplf-14" edge="1">
          <mxGeometry relative="1" as="geometry" />
        </mxCell>
        <mxCell id="Vq1-9iuDw2BEiqAgDplf-6" value="" style="verticalLabelPosition=bottom;verticalAlign=top;html=1;shape=hexagon;perimeter=hexagonPerimeter2;arcSize=6;size=0.27;" parent="1" vertex="1">
          <mxGeometry x="364" y="4440" width="100" height="60" as="geometry" />
        </mxCell>
        <mxCell id="Vq1-9iuDw2BEiqAgDplf-7" value="rentAnual&lt;br&gt;benefAnual" style="text;html=1;align=center;verticalAlign=middle;resizable=0;points=[];autosize=1;" parent="1" vertex="1">
          <mxGeometry x="374" y="4455" width="80" height="30" as="geometry" />
        </mxCell>
        <mxCell id="Vq1-9iuDw2BEiqAgDplf-19" style="edgeStyle=orthogonalEdgeStyle;rounded=0;orthogonalLoop=1;jettySize=auto;html=1;" parent="1" source="Vq1-9iuDw2BEiqAgDplf-14" target="Vq1-9iuDw2BEiqAgDplf-18" edge="1">
          <mxGeometry relative="1" as="geometry" />
        </mxCell>
        <mxCell id="Vq1-9iuDw2BEiqAgDplf-14" value="rentAnual = ( cantBase * inteAnual ) / 100" style="rounded=1;whiteSpace=wrap;html=1;absoluteArcSize=1;arcSize=14;strokeWidth=2;" parent="1" vertex="1">
          <mxGeometry x="290.75" y="4576" width="246.5" height="100" as="geometry" />
        </mxCell>
        <mxCell id="Vq1-9iuDw2BEiqAgDplf-21" style="edgeStyle=orthogonalEdgeStyle;rounded=0;orthogonalLoop=1;jettySize=auto;html=1;" parent="1" source="Vq1-9iuDw2BEiqAgDplf-18" target="Vq1-9iuDw2BEiqAgDplf-20" edge="1">
          <mxGeometry relative="1" as="geometry" />
        </mxCell>
        <mxCell id="Vq1-9iuDw2BEiqAgDplf-18" value="rentAnual" style="shape=parallelogram;html=1;strokeWidth=2;perimeter=parallelogramPerimeter;whiteSpace=wrap;rounded=1;arcSize=12;size=0.23;" parent="1" vertex="1">
          <mxGeometry x="364" y="4760" width="100" height="60" as="geometry" />
        </mxCell>
        <mxCell id="Vq1-9iuDw2BEiqAgDplf-20" value="Fin" style="strokeWidth=2;html=1;shape=mxgraph.flowchart.start_2;whiteSpace=wrap;" parent="1" vertex="1">
          <mxGeometry x="364" y="4930" width="100" height="100" as="geometry" />
        </mxCell>
        <mxCell id="Vq1-9iuDw2BEiqAgDplf-22" value="&lt;font style=&quot;font-size: 18px&quot;&gt;Algoritmo 16&lt;/font&gt;" style="text;html=1;align=center;verticalAlign=middle;resizable=0;points=[];autosize=1;strokeColor=none;fillColor=none;" parent="1" vertex="1">
          <mxGeometry y="5120" width="120" height="20" as="geometry" />
        </mxCell>
        <mxCell id="Vq1-9iuDw2BEiqAgDplf-23" value="&lt;div&gt;&amp;nbsp;Diseñar un diagrama de flujo que pregunte al usuario una cantidad a invertir&lt;/div&gt;&lt;div&gt;en un fondo de inversión, el interés anual y el número de años de la&lt;/div&gt;&lt;div&gt;inversión; y muestre por pantalla la rentabilidad obtenida durante cada año.&lt;/div&gt;&lt;div&gt;(Hay que tener en cuenta que cada año, la cantidad invertida aumenta con la&lt;/div&gt;&lt;div&gt;rentabilidad obtenida)&lt;/div&gt;" style="text;html=1;align=center;verticalAlign=middle;resizable=0;points=[];autosize=1;" parent="1" vertex="1">
          <mxGeometry x="120" y="5120" width="430" height="80" as="geometry" />
        </mxCell>
        <mxCell id="Vq1-9iuDw2BEiqAgDplf-24" style="edgeStyle=orthogonalEdgeStyle;rounded=0;orthogonalLoop=1;jettySize=auto;html=1;" parent="1" source="Vq1-9iuDw2BEiqAgDplf-25" target="Vq1-9iuDw2BEiqAgDplf-27" edge="1">
          <mxGeometry relative="1" as="geometry" />
        </mxCell>
        <mxCell id="Vq1-9iuDw2BEiqAgDplf-25" value="Inicio" style="strokeWidth=2;html=1;shape=mxgraph.flowchart.start_2;whiteSpace=wrap;" parent="1" vertex="1">
          <mxGeometry x="364" y="5261" width="100" height="100" as="geometry" />
        </mxCell>
        <mxCell id="Vq1-9iuDw2BEiqAgDplf-26" style="edgeStyle=orthogonalEdgeStyle;rounded=0;orthogonalLoop=1;jettySize=auto;html=1;" parent="1" source="Vq1-9iuDw2BEiqAgDplf-27" target="Vq1-9iuDw2BEiqAgDplf-29" edge="1">
          <mxGeometry relative="1" as="geometry" />
        </mxCell>
        <mxCell id="Vq1-9iuDw2BEiqAgDplf-27" value="cantBase&lt;br&gt;inteAnual&lt;br&gt;cantAnios" style="shape=parallelogram;html=1;strokeWidth=2;perimeter=parallelogramPerimeter;whiteSpace=wrap;rounded=1;arcSize=12;size=0.23;" parent="1" vertex="1">
          <mxGeometry x="364" y="5469" width="100" height="60" as="geometry" />
        </mxCell>
        <mxCell id="Vq1-9iuDw2BEiqAgDplf-28" style="edgeStyle=orthogonalEdgeStyle;rounded=0;orthogonalLoop=1;jettySize=auto;html=1;" parent="1" source="Vq1-9iuDw2BEiqAgDplf-29" edge="1">
          <mxGeometry relative="1" as="geometry">
            <mxPoint x="414" y="5745" as="targetPoint" />
          </mxGeometry>
        </mxCell>
        <mxCell id="Vq1-9iuDw2BEiqAgDplf-29" value="" style="verticalLabelPosition=bottom;verticalAlign=top;html=1;shape=hexagon;perimeter=hexagonPerimeter2;arcSize=6;size=0.27;" parent="1" vertex="1">
          <mxGeometry x="364" y="5609" width="100" height="81" as="geometry" />
        </mxCell>
        <mxCell id="Vq1-9iuDw2BEiqAgDplf-30" value="rentAnual&lt;br&gt;benefAnual&lt;br&gt;contador" style="text;html=1;align=center;verticalAlign=middle;resizable=0;points=[];autosize=1;" parent="1" vertex="1">
          <mxGeometry x="374" y="5624.5" width="80" height="50" as="geometry" />
        </mxCell>
        <mxCell id="Vq1-9iuDw2BEiqAgDplf-31" style="edgeStyle=orthogonalEdgeStyle;rounded=0;orthogonalLoop=1;jettySize=auto;html=1;" parent="1" target="Vq1-9iuDw2BEiqAgDplf-34" edge="1">
          <mxGeometry relative="1" as="geometry">
            <mxPoint x="413.9999999999998" y="5845" as="sourcePoint" />
          </mxGeometry>
        </mxCell>
        <mxCell id="Vq1-9iuDw2BEiqAgDplf-32" value="rentAnual = ( cantBase * inteAnual ) / 100&lt;br&gt;benefAnual = ( rentAnual * ( cantAnios - 1 ) )" style="rounded=1;whiteSpace=wrap;html=1;absoluteArcSize=1;arcSize=14;strokeWidth=2;" parent="1" vertex="1">
          <mxGeometry x="303.5" y="5745" width="246.5" height="100" as="geometry" />
        </mxCell>
        <mxCell id="Vq1-9iuDw2BEiqAgDplf-33" style="edgeStyle=orthogonalEdgeStyle;rounded=0;orthogonalLoop=1;jettySize=auto;html=1;" parent="1" source="Vq1-9iuDw2BEiqAgDplf-34" target="Vq1-9iuDw2BEiqAgDplf-35" edge="1">
          <mxGeometry relative="1" as="geometry" />
        </mxCell>
        <mxCell id="Vq1-9iuDw2BEiqAgDplf-34" value="rentAnual" style="shape=parallelogram;html=1;strokeWidth=2;perimeter=parallelogramPerimeter;whiteSpace=wrap;rounded=1;arcSize=12;size=0.23;" parent="1" vertex="1">
          <mxGeometry x="364" y="5929" width="100" height="60" as="geometry" />
        </mxCell>
        <mxCell id="Vq1-9iuDw2BEiqAgDplf-35" value="Fin" style="strokeWidth=2;html=1;shape=mxgraph.flowchart.start_2;whiteSpace=wrap;" parent="1" vertex="1">
          <mxGeometry x="364" y="6099" width="100" height="100" as="geometry" />
        </mxCell>
        <mxCell id="DGDsVjNwIjxhZrR9UOOr-1" value="&lt;font style=&quot;font-size: 18px&quot;&gt;Algoritmo 17&lt;/font&gt;" style="text;html=1;align=center;verticalAlign=middle;resizable=0;points=[];autosize=1;strokeColor=none;fillColor=none;" vertex="1" parent="1">
          <mxGeometry y="6280" width="120" height="40" as="geometry" />
        </mxCell>
        <mxCell id="DGDsVjNwIjxhZrR9UOOr-2" value="Diseñar un diagrama de flujo que pida al usuario un número entero y muestre&lt;br/&gt;por pantalla si es un número primo o no.&lt;br/&gt;" style="text;html=1;align=center;verticalAlign=middle;resizable=0;points=[];autosize=1;strokeColor=none;fillColor=none;" vertex="1" parent="1">
          <mxGeometry x="120" y="6283" width="440" height="40" as="geometry" />
        </mxCell>
      </root>
    </mxGraphModel>
  </diagram>
</mxfile>
